<svg xmlns="http://www.w3.org/2000/svg" version="1.1" xmlns:xlink="http://www.w3.org/1999/xlink" xmlns:svgjs="http://svgjs.dev/svgjs" viewBox="0 0 800 800"><g stroke-width="0.5" stroke="hsla(0, 0%, 94%, 1.00)" fill="none"><circle r="1140" cx="50%" cy="0"></circle><circle r="1102" cx="50%" cy="0"></circle><circle r="1064" cx="50%" cy="0"></circle><circle r="1026" cx="50%" cy="0"></circle><circle r="988" cx="50%" cy="0"></circle><circle r="950" cx="50%" cy="0"></circle><circle r="912" cx="50%" cy="0"></circle><circle r="874" cx="50%" cy="0"></circle><circle r="836" cx="50%" cy="0"></circle><circle r="798" cx="50%" cy="0"></circle><circle r="760" cx="50%" cy="0"></circle><circle r="722" cx="50%" cy="0"></circle><circle r="684" cx="50%" cy="0"></circle><circle r="646" cx="50%" cy="0"></circle><circle r="608" cx="50%" cy="0"></circle><circle r="570" cx="50%" cy="0"></circle><circle r="532" cx="50%" cy="0"></circle><circle r="494" cx="50%" cy="0"></circle><circle r="456" cx="50%" cy="0"></circle><circle r="418" cx="50%" cy="0"></circle><circle r="380" cx="50%" cy="0"></circle><circle r="342" cx="50%" cy="0"></circle><circle r="304" cx="50%" cy="0"></circle><circle r="266" cx="50%" cy="0"></circle><circle r="228" cx="50%" cy="0"></circle><circle r="190" cx="50%" cy="0"></circle><circle r="152" cx="50%" cy="0"></circle><circle r="114" cx="50%" cy="0"></circle><circle r="76" cx="50%" cy="0"></circle><circle r="38" cx="50%" cy="0"></circle></g><g stroke-width="0.5" stroke="hsla(0, 0%, 94%, 1.00)" fill="none"><circle r="1140" cx="50%" cy="100%"></circle><circle r="1102" cx="50%" cy="100%"></circle><circle r="1064" cx="50%" cy="100%"></circle><circle r="1026" cx="50%" cy="100%"></circle><circle r="988" cx="50%" cy="100%"></circle><circle r="950" cx="50%" cy="100%"></circle><circle r="912" cx="50%" cy="100%"></circle><circle r="874" cx="50%" cy="100%"></circle><circle r="836" cx="50%" cy="100%"></circle><circle r="798" cx="50%" cy="100%"></circle><circle r="760" cx="50%" cy="100%"></circle><circle r="722" cx="50%" cy="100%"></circle><circle r="684" cx="50%" cy="100%"></circle><circle r="646" cx="50%" cy="100%"></circle><circle r="608" cx="50%" cy="100%"></circle><circle r="570" cx="50%" cy="100%"></circle><circle r="532" cx="50%" cy="100%"></circle><circle r="494" cx="50%" cy="100%"></circle><circle r="456" cx="50%" cy="100%"></circle><circle r="418" cx="50%" cy="100%"></circle><circle r="380" cx="50%" cy="100%"></circle><circle r="342" cx="50%" cy="100%"></circle><circle r="304" cx="50%" cy="100%"></circle><circle r="266" cx="50%" cy="100%"></circle><circle r="228" cx="50%" cy="100%"></circle><circle r="190" cx="50%" cy="100%"></circle><circle r="152" cx="50%" cy="100%"></circle><circle r="114" cx="50%" cy="100%"></circle><circle r="76" cx="50%" cy="100%"></circle><circle r="38" cx="50%" cy="100%"></circle></g><g stroke-width="0.5" stroke="hsla(0, 0%, 94%, 1.00)" fill="none"><circle r="1140" cx="0" cy="50%"></circle><circle r="1102" cx="0" cy="50%"></circle><circle r="1064" cx="0" cy="50%"></circle><circle r="1026" cx="0" cy="50%"></circle><circle r="988" cx="0" cy="50%"></circle><circle r="950" cx="0" cy="50%"></circle><circle r="912" cx="0" cy="50%"></circle><circle r="874" cx="0" cy="50%"></circle><circle r="836" cx="0" cy="50%"></circle><circle r="798" cx="0" cy="50%"></circle><circle r="760" cx="0" cy="50%"></circle><circle r="722" cx="0" cy="50%"></circle><circle r="684" cx="0" cy="50%"></circle><circle r="646" cx="0" cy="50%"></circle><circle r="608" cx="0" cy="50%"></circle><circle r="570" cx="0" cy="50%"></circle><circle r="532" cx="0" cy="50%"></circle><circle r="494" cx="0" cy="50%"></circle><circle r="456" cx="0" cy="50%"></circle><circle r="418" cx="0" cy="50%"></circle><circle r="380" cx="0" cy="50%"></circle><circle r="342" cx="0" cy="50%"></circle><circle r="304" cx="0" cy="50%"></circle><circle r="266" cx="0" cy="50%"></circle><circle r="228" cx="0" cy="50%"></circle><circle r="190" cx="0" cy="50%"></circle><circle r="152" cx="0" cy="50%"></circle><circle r="114" cx="0" cy="50%"></circle><circle r="76" cx="0" cy="50%"></circle><circle r="38" cx="0" cy="50%"></circle></g><g stroke-width="0.5" stroke="hsla(0, 0%, 94%, 1.00)" fill="none"><circle r="1140" cx="100%" cy="50%"></circle><circle r="1102" cx="100%" cy="50%"></circle><circle r="1064" cx="100%" cy="50%"></circle><circle r="1026" cx="100%" cy="50%"></circle><circle r="988" cx="100%" cy="50%"></circle><circle r="950" cx="100%" cy="50%"></circle><circle r="912" cx="100%" cy="50%"></circle><circle r="874" cx="100%" cy="50%"></circle><circle r="836" cx="100%" cy="50%"></circle><circle r="798" cx="100%" cy="50%"></circle><circle r="760" cx="100%" cy="50%"></circle><circle r="722" cx="100%" cy="50%"></circle><circle r="684" cx="100%" cy="50%"></circle><circle r="646" cx="100%" cy="50%"></circle><circle r="608" cx="100%" cy="50%"></circle><circle r="570" cx="100%" cy="50%"></circle><circle r="532" cx="100%" cy="50%"></circle><circle r="494" cx="100%" cy="50%"></circle><circle r="456" cx="100%" cy="50%"></circle><circle r="418" cx="100%" cy="50%"></circle><circle r="380" cx="100%" cy="50%"></circle><circle r="342" cx="100%" cy="50%"></circle><circle r="304" cx="100%" cy="50%"></circle><circle r="266" cx="100%" cy="50%"></circle><circle r="228" cx="100%" cy="50%"></circle><circle r="190" cx="100%" cy="50%"></circle><circle r="152" cx="100%" cy="50%"></circle><circle r="114" cx="100%" cy="50%"></circle><circle r="76" cx="100%" cy="50%"></circle><circle r="38" cx="100%" cy="50%"></circle></g></svg>