<?xml version="1.0" encoding="UTF-8" standalone="no"?>
<svg
   xmlns:dc="http://purl.org/dc/elements/1.1/"
   xmlns:cc="http://creativecommons.org/ns#"
   xmlns:rdf="http://www.w3.org/1999/02/22-rdf-syntax-ns#"
   xmlns:svg="http://www.w3.org/2000/svg"
   xmlns="http://www.w3.org/2000/svg"
   xmlns:sodipodi="http://sodipodi.sourceforge.net/DTD/sodipodi-0.dtd"
   xmlns:inkscape="http://www.inkscape.org/namespaces/inkscape"
   width="1158.7787mm"
   height="65.200775mm"
   viewBox="0 0 1158.7787 65.200776"
   version="1.1"
   id="svg8"
   sodipodi:docname="sinc.svg"
   inkscape:version="1.0.1 (3bc2e813f5, 2020-09-07)">
  <defs
     id="defs2" />
  <sodipodi:namedview
     id="base"
     pagecolor="#ffffff"
     bordercolor="#666666"
     borderopacity="1.0"
     inkscape:pageopacity="0.0"
     inkscape:pageshadow="2"
     inkscape:zoom="0.35168089"
     inkscape:cx="3504.7557"
     inkscape:cy="27.298001"
     inkscape:document-units="mm"
     inkscape:current-layer="layer1"
     inkscape:document-rotation="0"
     showgrid="false"
     showborder="true"
     inkscape:window-width="1594"
     inkscape:window-height="857"
     inkscape:window-x="0"
     inkscape:window-y="40"
     inkscape:window-maximized="1"
     fit-margin-top="0"
     fit-margin-left="0"
     fit-margin-right="0"
     fit-margin-bottom="0" />
  <metadata
     id="metadata5">
    <rdf:RDF>
      <cc:Work
         rdf:about="">
        <dc:format>image/svg+xml</dc:format>
        <dc:type
           rdf:resource="http://purl.org/dc/dcmitype/StillImage" />
        <dc:title></dc:title>
      </cc:Work>
    </rdf:RDF>
  </metadata>
  <g
     inkscape:label="Layer 1"
     inkscape:groupmode="layer"
     id="layer1"
     transform="translate(860.79274,155.98695)">
    <path
       style="fill:none;stroke:#000000;stroke-width:6;stroke-linecap:round;stroke-linejoin:round;stroke-miterlimit:10;stroke-dasharray:none;stroke-opacity:1"
       d="m -143.98195,-104.30647 c 4.31366,-1.12209 8.62733,-2.25563 12.94099,-2.3806 4.31366,-0.12496 8.62733,0.81592 12.94099,2.10229 4.31366,1.28637 8.62733,2.72999 12.94073,3.04006 4.31358,0.31007 8.627153,-0.61077 12.94073,-2.10281 4.313664,-1.49204 8.62724,-3.34935 12.940817,-3.92316 4.313577,-0.57406 8.62724,0.28925 12.940817,2.05517 4.313577,1.76593 8.627154,4.21396 12.940817,5.19546 4.313577,0.981506 8.627154,0.2567 12.940731,-1.90729 4.313663,-2.16426 8.62724,-5.54848 12.940817,-7.24907 4.313602,-1.70083 8.627196,-1.34026 12.940791,1.48267 4.313602,2.82293 8.6271792,7.96268 12.9407559,11.298226 4.3136635,3.335627 8.6272403,4.317521 12.9408171,0.179821 4.313577,-4.137597 8.62724,-13.488437 12.940817,-24.143857 4.313577,-10.65517 8.627154,-22.0216 12.940817,-27.91297 4.313577,-5.8911 8.627154,-5.88068 12.94073,0 4.313664,5.88096 8.627241,17.25598 12.940817,27.91297 4.313577,10.65699 8.627587,19.99689 12.940384,24.143857 4.313663,4.146994 8.627327,3.151875 12.94099,-0.179821 4.313664,-3.331646 8.627327,-8.471126 12.940992,-11.298226 4.31366,-2.82709 8.62733,-3.18012 12.94099,-1.48267 4.31366,1.6972 8.62733,5.08273 12.94099,7.24907 4.31366,2.16634 8.62646,2.885933 12.94012,1.90729 4.31367,-0.97864 8.62733,-3.42823 12.94099,-5.19546 4.31367,-1.76722 8.62733,-2.62689 12.94099,-2.05517 4.31367,0.57147 8.62733,2.43033 12.94099,3.92316 4.31367,1.49282 8.62733,2.4108 12.94013,2.10281 4.31366,-0.30799 8.62732,-1.75343 12.94099,-3.04006 4.31366,-1.28689 8.62732,-2.22543 12.94099,-2.10229 4.31366,0.12315 8.62733,1.25851 12.94099,2.3806"
       title="sin(pi*x)/(x)"
       id="path1348" />
    <path
       style="fill:none;stroke:#000000;stroke-width:6;stroke-linecap:round;stroke-linejoin:round;stroke-miterlimit:10;stroke-dasharray:none;stroke-opacity:1"
       d="M -143.98195,-104.30647 H -857.79274"
       id="path1353"
       sodipodi:nodetypes="cc" />
    <path
       style="fill:none;stroke:#000000;stroke-width:6;stroke-linecap:round;stroke-linejoin:round;stroke-miterlimit:10;stroke-dasharray:none;stroke-opacity:1"
       d="m 231.30157,-104.30647 h 63.68437"
       id="path1355" />
  </g>
</svg>
